<svg width="142" height="24" viewBox="0 0 142 24" fill="none" xmlns="http://www.w3.org/2000/svg">
<path d="M2.6582 8.40039C3.69069 8.40039 4.9459 8.40039 5.97839 8.40039M8.68372 8.40039C8.99587 8.40039 9.17088 8.40039 9.48302 8.40039H10.2208H10.0979M10.2208 10.0114C10.0979 10.0114 8.43778 10.0114 8.25333 10.0114M7.26957 10.0114C5.73284 10.0114 4.19493 10.0114 2.6582 10.0114M7.51551 9.4576C7.51551 9.4576 8.97698 10.8383 9.91342 11.723M10.2208 12.7803L11.512 15.2471" stroke="#D77E2A" stroke-linecap="round" stroke-linejoin="round"/>
<path d="M9.60693 11.4717H2.59766M10.5907 13.5861H2.59766M9.97584 15.4488H7.2433M5.63055 15.4488H2.59766M9.97584 17.6136H2.59766M9.97584 19.8287H2.59766M9.97584 21.4396H2.59766" stroke="#D77E2A" stroke-linecap="round" stroke-linejoin="round"/>
<path d="M2.1759 5.58124V5.58124C1.68663 5.22514 1 5.57463 1 6.17977V22C1 22.5523 1.44772 23 2 23H10.5139C11.0662 23 11.5139 22.5523 11.5139 22V5.8222C11.5139 5.45816 11.0556 5.29718 10.828 5.58124V5.58124M2.1759 5.58124L3.49014 6.53776M2.1759 5.58124L3.0021 4.59954M6.16473 3.61785H4.29372C3.99864 3.61785 3.71862 3.74817 3.52862 3.97393L3.0021 4.59954M6.16473 3.61785L6.56582 4.71254C6.6628 4.97723 6.64356 5.27055 6.51283 5.5203L6.16473 6.18535M6.16473 3.61785L7.33824 2.98832C7.70501 2.79157 8.1553 2.84256 8.46878 3.11635L9.79234 4.27231M6.16473 6.18535L3.49014 6.53776M6.16473 6.18535L7.64037 7.19222M3.49014 6.53776L6.86858 8.99664C7.30051 9.311 7.90325 9.23036 8.23734 8.81351L8.77015 8.14874M7.64037 7.19222L8.77015 8.14874M7.64037 7.19222C7.76042 6.72037 8.3167 5.58124 8.00927 6.2357M8.77015 8.14874L10.828 5.58124M10.828 5.58124L9.79234 4.27231M9.79234 4.27231H9.1961C8.92396 4.27231 8.66358 4.38322 8.47503 4.57945L7.94779 5.12815M3.0021 4.59954L2.69634 4.23624C2.41484 3.90176 2.47544 3.39883 2.82834 3.14078V3.14078C2.94192 3.05774 3.03002 2.9446 3.08272 2.81414L3.23749 2.43097C3.39018 2.05297 3.75704 1.80549 4.16471 1.80549H4.31388C4.55579 1.80549 4.78949 1.7178 4.97169 1.55867L5.05876 1.48263C5.38201 1.20032 5.85758 1.1792 6.20458 1.43175V1.43175C6.51363 1.65668 6.92963 1.66693 7.24938 1.45748L7.49533 1.29637C7.77765 1.11145 8.13419 1.0814 8.44347 1.21646L9.19253 1.54356C9.55685 1.70266 9.79234 2.06245 9.79234 2.45999V2.66133" stroke="#D77E2A" stroke-linecap="round" stroke-linejoin="round"/>
<path d="M9.69411 2.48975L9.75689 2.51475C10.2812 2.72356 10.6252 3.23087 10.6252 3.7952V3.7952C10.6252 3.9653 10.6566 4.13393 10.718 4.29258L11.1094 5.30413M2.41525 3.97971L1.4043 5.30413" stroke="#D77E2A" stroke-linecap="round" stroke-linejoin="round"/>
<path d="M18.1298 17.5835L17.7959 17.9043C17.2352 18.4429 16.9183 19.1867 16.9183 19.9642V20.0129C16.9183 21.5635 18.1752 22.8204 19.7258 22.8204V22.8204C20.4509 22.8204 21.1478 22.5399 21.6707 22.0377L22.6731 21.0748M18.1298 17.5835L17.839 17.374C16.9007 16.6981 16.3695 15.9999 16.4779 14.8485V14.8485C16.5574 14.0037 16.923 12.7458 17.5366 12.1597L27.9915 2.17355C28.7685 1.43136 29.8394 1.0803 30.905 1.21847V1.21847C31.5931 1.30768 32.24 1.59621 32.7661 2.04851L33.577 2.74564M18.1298 17.5835L33.577 2.74564M33.577 2.74564L34.5794 1.78278C35.1022 1.2805 35.7992 1 36.5242 1V1C38.0748 1 39.3318 2.25698 39.3318 3.80753V3.85625C39.3318 4.63371 39.0149 5.37757 38.4542 5.91614L38.1202 6.23691M22.6731 21.0748L23.0628 21.4519C23.7681 22.1344 24.7111 22.516 25.6926 22.516V22.516C26.6713 22.516 27.6119 22.1366 28.3166 21.4575L38.5178 11.6288C39.0471 11.1189 39.4032 10.4558 39.536 9.73284V9.73284C39.7812 8.39743 39.2219 7.03055 38.1202 6.23691V6.23691M22.6731 21.0748L38.1202 6.23691" stroke="#D77E2A" stroke-linecap="round" stroke-linejoin="round"/>
<path d="M19.873 18.7664C19.873 18.7664 20.4672 19.5952 21.3776 19.3436C22.4954 19.0346 23.06 18.651 23.4839 17.6119C23.8693 16.6673 23.3994 15.9591 23.7848 15.0145C24.2087 13.9754 24.8078 13.4008 25.8911 12.9942C26.876 12.6246 27.6143 13.0753 28.5992 12.7056C29.6825 12.2991 30.7055 11.0098 30.7055 10.1082C30.7055 9.20652 30.7055 9.85542 30.7055 8.95376C30.7055 8.0521 31.8996 6.87791 33.1128 6.3563C34.1904 5.89297 35.2167 6.79535 36.1218 6.0677C36.6469 5.64551 37.0482 5.28147 37.0245 4.62467C36.9984 3.90342 36.5488 3.36436 35.8209 3.18164" stroke="#D77E2A" stroke-linecap="round" stroke-linejoin="round"/>
<path d="M47.5703 3.92384L50.4444 7.46906M51.0192 2.04697L55.6178 7.46906M56.001 1.62988L60.7911 7.46906M60.7911 1.62988L65.7729 7.46906M58.6835 1.62988L63.282 7.46906M53.1269 1.62988L58.1087 7.46906M49.2948 2.67259L53.1269 7.46906" stroke="#D77E2A" stroke-linecap="round" stroke-linejoin="round"/>
<path d="M67.686 7.3678L63.4707 2.36279" stroke="#D77E2A" stroke-linecap="round" stroke-linejoin="round"/>
<path d="M52.8965 11.4497V12.8899M52.8965 16.1438L54.8902 15.8237M56.3854 16.5172L57.5484 17.1573" stroke="#D77E2A" stroke-linecap="round" stroke-linejoin="round"/>
<path d="M48.817 13.2759L47.1992 16.1698" stroke="#D77E2A" stroke-linecap="round" stroke-linejoin="round"/>
<path d="M52.2833 13.3862C52.2833 13.3862 51.7633 14.7218 51.1855 14.6662M56.0968 13.3862C56.4754 14.1222 56.5416 14.6539 57.1946 15.167M61.1813 12.9966C61.1195 14.3985 61.242 15.1679 62.3369 16.447M65.5147 12.9966C65.2078 13.8404 65.7458 14.4992 66.2659 14.6105" stroke="#D77E2A" stroke-linecap="round" stroke-linejoin="round"/>
<path d="M44.3105 14.5614L47.3762 13.1016" stroke="#D77E2A" stroke-linecap="round" stroke-linejoin="round"/>
<path d="M66.5369 19.7752C66.5369 19.7752 67.6996 19.8334 68.0697 20.4008C68.4613 21.001 67.7755 21.8796 67.2486 22.4202C66.9278 22.7493 66.4776 22.9033 66.018 22.9033H48.7381C48.2323 22.9033 47.7384 22.7169 47.4174 22.326C46.9654 21.7756 46.4435 20.9513 46.8014 20.4008C47.1707 19.8328 48.3343 19.7752 48.3343 19.7752M66.5369 19.7752H48.3343M66.5369 19.7752H68.2282C68.6246 19.7752 69.0184 19.6637 69.3082 19.3933C69.6052 19.1162 69.9407 18.7204 69.9858 18.3154C70.0402 17.8268 69.6751 17.2984 69.3421 16.9271C69.0379 16.5878 68.5877 16.4385 68.132 16.4385H46.7392C46.2834 16.4385 45.8333 16.5878 45.529 16.9271C45.1961 17.2984 44.831 17.8268 44.8854 18.3154C44.9305 18.7204 45.266 19.1162 45.563 19.3933C45.8528 19.6637 46.2466 19.7752 46.6429 19.7752H48.3343M44.3105 14.5616L46.983 16.6623C47.4278 17.012 48.0626 16.9794 48.4693 16.5859L48.8539 16.2138C49.1771 15.9011 49.7069 15.9683 49.9418 16.3518V16.3518C50.1202 16.643 50.4821 16.7639 50.7996 16.6382L53.2828 15.6554C54.0046 15.3697 54.8264 15.5275 55.3911 16.0602L56.2068 16.8296C56.7864 17.3763 57.7238 17.2415 58.1259 16.5538V16.5538C58.4426 16.0122 59.1142 15.7929 59.6895 16.0433L61.6209 16.8842C62.1289 17.1054 62.7219 16.9092 62.9977 16.4288V16.4288C63.2688 15.9567 63.8474 15.7579 64.3514 15.9636L65.6359 16.4879C66.2047 16.72 66.8486 16.6779 67.3822 16.3736L68.5487 15.7086V15.7086C69.3893 15.2294 69.3349 13.9999 68.4553 13.5968L66.9201 12.8933M66.9201 12.8933C66.9201 12.8933 67.6865 12.372 67.6865 11.8506C67.6865 11.6247 67.5427 11.3989 67.3797 11.2155C67.1133 10.9156 66.7056 10.8079 66.3044 10.8079H65.3623C65.0024 10.8079 64.6263 10.8796 64.369 11.1312C64.1571 11.3385 64.0904 11.5462 64.046 11.8506M66.9201 12.8933L64.8124 12.9158M52.8678 11.8506C52.8378 11.5381 52.6964 11.3317 52.4459 11.1294C52.1557 10.8951 51.7771 10.8079 51.4041 10.8079H47.6401C47.4649 10.8079 47.2899 10.8294 47.1258 10.8904C46.7491 11.0306 46.0758 11.3497 46.035 11.8506C45.9933 12.3623 46.6365 12.7595 47.0469 12.9594C47.2605 13.0633 47.4978 13.1005 47.7353 13.098L51.9748 13.0527M52.8678 11.8506C52.784 12.3367 52.5423 12.604 51.9748 13.0527M52.8678 11.8506C52.8591 11.4013 53.3826 11.0845 53.7261 10.9254C53.9152 10.8377 54.1236 10.8079 54.3321 10.8079H57.4515C57.7562 10.8079 58.0675 10.8678 58.2922 11.0737C58.4857 11.251 58.681 11.5135 58.681 11.8506M52.8678 11.8506C53.0153 12.5463 53.2059 12.754 53.8909 13.0323M51.9748 13.0527L53.8909 13.0323M58.681 11.8506C58.5633 12.7578 58.1197 12.9872 57.9146 12.9894M58.681 11.8506C58.681 11.4864 58.9091 11.2092 59.1164 11.0325C59.3173 10.8614 59.5846 10.8079 59.8485 10.8079H62.2457C62.7381 10.8079 64.0333 11.3583 64.046 11.8506V11.8506M58.681 11.8506C58.681 12.5182 59.4474 12.973 59.4474 12.973M57.9146 12.9894L53.8909 13.0323M57.9146 12.9894L59.4474 12.973M64.046 11.8506C64.1536 12.3453 63.6298 12.9303 63.4712 12.9301M64.046 11.8506C64.046 12.5698 64.8124 12.9158 64.8124 12.9158M63.4712 12.9301L59.4474 12.973M63.4712 12.9301L64.8124 12.9158M68.0697 8.09681C68.0697 8.31512 68.0697 8.55867 68.0697 8.80776C68.0697 9.91233 67.1743 10.8079 66.0697 10.8079H47.901C46.8502 10.8079 45.9666 9.99358 45.9868 8.94295C45.9925 8.64664 46.0069 8.35358 46.035 8.09681C46.1726 6.84141 46.2373 6.07388 46.8014 4.96869C48.7175 1.21493 54.4657 1.42347 58.4894 1.42347C62.5131 1.42348 65.1956 2.25765 66.9201 4.55161C67.795 5.7155 68.0697 6.84557 68.0697 8.09681Z" stroke="#D77E2A" stroke-linecap="round" stroke-linejoin="round"/>
<path d="M81.3271 13.5378L81.1218 13.4185C81.1719 13.3355 81.2292 13.2581 81.293 13.1867L81.4861 13.3727L81.3271 13.5378ZM83.6933 15.1226C83.6934 15.1227 83.6934 15.1227 83.6934 15.1227L83.6933 15.1226Z" fill="#D77E2A" stroke="#D77E2A"/>
<path d="M77.1113 11.2783H90.8226M77.5466 19.7684H90.0609" stroke="#D77E2A"/>
<path d="M91.1497 7.29578L89.7351 22.9133H77.7649L76.8943 7.29578M91.1497 7.29578H92.9997V5.72355L89.7351 4.98985L88.8645 2.26465H78.7442L78.0913 4.98985M91.1497 7.29578H76.8943M78.0913 4.98985L74.9355 5.72355V7.29578H76.8943M78.0913 4.98985H87.2322" stroke="#D77E2A"/>
<path d="M97.6895 21.345L97.6895 5.61084C97.6895 3.95398 99.0326 2.61084 100.689 2.61084H112.543C113.3 2.61084 113.914 3.22437 113.914 3.98119V3.98119C113.914 5.06142 115.131 5.69241 116.194 5.50013C116.302 5.48056 116.408 5.46736 116.511 5.46207C117.772 5.397 118.58 5.71642 119.57 6.47225C120.602 7.26051 120.968 8.40842 121.318 9.25024C121.667 10.0921 122.089 12.7186 121.318 14.722C120.87 15.8851 120.569 16.6337 119.57 17.4158C118.58 18.1896 117.783 18.5798 116.511 18.5102V18.5102C115.31 18.4445 113.914 19.0594 113.914 20.2619V21.345M97.6895 21.345V21.345C97.8357 22.1415 98.527 22.7218 99.3368 22.7278L111.893 22.8204C112.818 22.8272 113.639 22.2281 113.914 21.345V21.345M97.6895 21.345H109.283M113.914 21.345H112.988M110.672 21.345H111.753M116.511 8.24006C116.109 8.20237 115.65 8.33018 115.23 8.50643C114.352 8.87567 113.914 9.81263 113.914 10.7655V13.2068C113.914 14.1596 114.352 15.0966 115.23 15.4658C115.65 15.6421 116.109 15.7699 116.511 15.7322C117.392 15.6495 117.949 15.3731 118.521 14.722C119.57 13.5281 119.57 10.5207 118.521 9.25024C117.97 8.58269 117.392 8.32272 116.511 8.24006Z" stroke="#D77E2A" stroke-linecap="round" stroke-linejoin="round"/>
<path d="M108.356 1.42139V9.89637M108.356 9.89637L107.023 11.0093C106.401 11.5289 106.041 12.298 106.041 13.1088V13.4511C106.041 14.7725 107.112 15.8437 108.434 15.8437V15.8437C109.755 15.8437 110.826 14.7725 110.826 13.4511V13.1444C110.826 12.3143 110.444 11.5303 109.791 11.0187L108.356 9.89637ZM108.356 12.1266V14.6543" stroke="#D77E2A" stroke-linecap="round" stroke-linejoin="round"/>
<path d="M140.133 12.6498C140.133 12.6498 140.744 12.5416 140.953 12.0951C141.239 11.4815 140.133 10.8007 140.133 10.8007M140.133 12.6498H127.531M140.133 12.6498L139.676 15.701M140.133 10.8007C140.133 10.8007 139.772 8.03331 138.596 6.73246C137.351 5.35444 136.091 4.6059 134.144 4.6059C131.841 4.6059 130.579 5.22727 129.171 6.73246C127.962 8.02405 127.531 10.8007 127.531 10.8007M140.133 10.8007H127.531M127.531 10.8007C127.531 10.8007 126.312 11.4045 126.609 12.0951C126.843 12.6389 127.531 12.6498 127.531 12.6498M127.531 12.6498L128.019 15.701M133.883 8.11935V3.16519C133.883 2.45418 134.261 1.79662 134.875 1.43809L135.625 1M128.019 15.701H139.676M128.019 15.701L128.698 19.9541M139.676 15.701L139.039 19.9541M128.698 19.9541L128.901 21.2283C129.056 22.1988 129.894 22.9128 130.876 22.9128H136.873C137.864 22.9128 138.705 22.1883 138.851 21.209L139.039 19.9541M128.698 19.9541H139.039M130.81 17.7351H132.244M134.191 17.7351H137.469" stroke="#D77E2A" stroke-linecap="round" stroke-linejoin="round"/>
</svg>
